<mxfile host="app.diagrams.net" agent="Mozilla/5.0 (Windows NT 10.0; Win64; x64) AppleWebKit/537.36 (KHTML, like Gecko) Chrome/131.0.0.0 Safari/537.36" version="25.0.1">
  <diagram name="Page-1" id="l4oCFEl9QEJFRNY1iM5H">
    <mxGraphModel dx="1434" dy="746" grid="1" gridSize="10" guides="1" tooltips="1" connect="1" arrows="1" fold="1" page="1" pageScale="1" pageWidth="690" pageHeight="980" math="0" shadow="0">
      <root>
        <mxCell id="0" />
        <mxCell id="1" parent="0" />
        <mxCell id="byPocm1qN5fjNIOhkNYW-6" style="edgeStyle=orthogonalEdgeStyle;rounded=0;orthogonalLoop=1;jettySize=auto;html=1;exitX=0;exitY=0.25;exitDx=0;exitDy=0;startArrow=classic;startFill=1;" edge="1" parent="1" source="byPocm1qN5fjNIOhkNYW-5">
          <mxGeometry relative="1" as="geometry">
            <mxPoint x="315" y="102" as="targetPoint" />
          </mxGeometry>
        </mxCell>
        <mxCell id="byPocm1qN5fjNIOhkNYW-7" value="UART" style="edgeLabel;html=1;align=center;verticalAlign=middle;resizable=0;points=[];" vertex="1" connectable="0" parent="byPocm1qN5fjNIOhkNYW-6">
          <mxGeometry x="-0.1333" y="-1" relative="1" as="geometry">
            <mxPoint as="offset" />
          </mxGeometry>
        </mxCell>
        <mxCell id="byPocm1qN5fjNIOhkNYW-8" style="edgeStyle=orthogonalEdgeStyle;rounded=0;orthogonalLoop=1;jettySize=auto;html=1;exitX=0;exitY=0.75;exitDx=0;exitDy=0;endArrow=classic;endFill=1;startArrow=classic;startFill=1;" edge="1" parent="1" source="byPocm1qN5fjNIOhkNYW-5">
          <mxGeometry relative="1" as="geometry">
            <mxPoint x="315" y="132" as="targetPoint" />
          </mxGeometry>
        </mxCell>
        <mxCell id="byPocm1qN5fjNIOhkNYW-9" value="PCM" style="edgeLabel;html=1;align=center;verticalAlign=middle;resizable=0;points=[];" vertex="1" connectable="0" parent="byPocm1qN5fjNIOhkNYW-8">
          <mxGeometry x="0.0609" relative="1" as="geometry">
            <mxPoint as="offset" />
          </mxGeometry>
        </mxCell>
        <mxCell id="byPocm1qN5fjNIOhkNYW-5" value="&lt;span style=&quot;text-wrap-mode: nowrap;&quot;&gt;天通卫星&lt;/span&gt;" style="rounded=0;whiteSpace=wrap;html=1;" vertex="1" parent="1">
          <mxGeometry x="405" y="87" width="80" height="60" as="geometry" />
        </mxCell>
        <mxCell id="byPocm1qN5fjNIOhkNYW-1" value="" style="sketch=0;verticalLabelPosition=bottom;sketch=0;aspect=fixed;html=1;verticalAlign=top;strokeColor=none;fillColor=#000000;align=center;outlineConnect=0;pointerEvents=1;shape=mxgraph.citrix2.mobile;" vertex="1" parent="1">
          <mxGeometry x="95" y="92" width="25.255" height="50" as="geometry" />
        </mxCell>
        <mxCell id="byPocm1qN5fjNIOhkNYW-2" value="Linphone" style="text;html=1;align=center;verticalAlign=middle;resizable=0;points=[];autosize=1;strokeColor=none;fillColor=none;" vertex="1" parent="1">
          <mxGeometry x="80" y="50" width="70" height="30" as="geometry" />
        </mxCell>
        <mxCell id="byPocm1qN5fjNIOhkNYW-11" value="" style="rounded=0;whiteSpace=wrap;html=1;" vertex="1" parent="1">
          <mxGeometry x="195" y="87" width="120" height="60" as="geometry" />
        </mxCell>
        <mxCell id="byPocm1qN5fjNIOhkNYW-12" value="&lt;span style=&quot;text-wrap-mode: wrap;&quot;&gt;sip server&lt;/span&gt;" style="text;html=1;align=center;verticalAlign=middle;resizable=0;points=[];autosize=1;strokeColor=none;fillColor=none;" vertex="1" parent="1">
          <mxGeometry x="185" y="92" width="80" height="30" as="geometry" />
        </mxCell>
        <mxCell id="byPocm1qN5fjNIOhkNYW-14" value="" style="points=[[0.005,0.09,0],[0.08,0,0],[0.76,0.25,0],[1,0.92,0],[0.91,0.995,0],[0.57,0.995,0],[0.045,0.955,0],[0.005,0.43,0]];verticalLabelPosition=bottom;sketch=0;html=1;verticalAlign=top;aspect=fixed;align=center;pointerEvents=1;shape=mxgraph.cisco19.3g_4g_indicator;fillColor=#005073;strokeColor=none;" vertex="1" parent="1">
          <mxGeometry x="145" y="102" width="20" height="20" as="geometry" />
        </mxCell>
      </root>
    </mxGraphModel>
  </diagram>
</mxfile>
